HIERARCHY
ROOT ZeroOut_JNT
{
  OFFSET 0 0 0
  CHANNELS 6 Xposition Yposition Zposition Zrotation Xrotation Yrotation
  JOINT SpineFinal_1_JNT
  {
    OFFSET 0 59.8141 -42.9993
    CHANNELS 6 Xposition Yposition Zposition Zrotation Xrotation Yrotation
    JOINT l_legIKClavicle_Root_JNT
    {
      OFFSET -0.323145 -1.55994 9.59625
      CHANNELS 6 Xposition Yposition Zposition Zrotation Xrotation Yrotation
      JOINT l_legBlendRoot_JNT
      {
        OFFSET 16.1374 0 0
        CHANNELS 6 Xposition Yposition Zposition Zrotation Xrotation Yrotation
        JOINT l_legBlendMiddle_JNT
        {
          OFFSET 27.0969 0 0
          CHANNELS 6 Xposition Yposition Zposition Zrotation Xrotation Yrotation
          JOINT l_legBlendEnd_JNT
          {
            OFFSET 24.8414 0 0
            CHANNELS 6 Xposition Yposition Zposition Zrotation Xrotation Yrotation
            JOINT l_legBlendTip_JNT
            {
              OFFSET 6.77858 0 0
              CHANNELS 6 Xposition Yposition Zposition Zrotation Xrotation Yrotation
              End Site
              {
                OFFSET 0 0 0
              }
            }
          }
        }
      }
    }
    JOINT SpineFinal_2_JNT
    {
      OFFSET -19.5366 0.0587492 -0.00256357
      CHANNELS 6 Xposition Yposition Zposition Zrotation Xrotation Yrotation
      JOINT SpineFinal_3_JNT
      {
        OFFSET -19.4679 1.47333 -0.00136182
        CHANNELS 6 Xposition Yposition Zposition Zrotation Xrotation Yrotation
        JOINT SpineFinal_4_JNT
        {
          OFFSET -18.2335 5.20609 0
          CHANNELS 6 Xposition Yposition Zposition Zrotation Xrotation Yrotation
          JOINT SpineFinal_5_JNT
          {
            OFFSET -17.3574 8.01768 -1.82773e-005
            CHANNELS 6 Xposition Yposition Zposition Zrotation Xrotation Yrotation
            JOINT SpineFinal_6_JNT
            {
              OFFSET -19.144 8.35871 0
              CHANNELS 6 Xposition Yposition Zposition Zrotation Xrotation Yrotation
              JOINT SpineFinal_7_JNT
              {
                OFFSET -16.3943 7.24542 0
                CHANNELS 6 Xposition Yposition Zposition Zrotation Xrotation Yrotation
                JOINT SpineFinal_8_JNT
                {
                  OFFSET -19.3877 2.40349 0
                  CHANNELS 6 Xposition Yposition Zposition Zrotation Xrotation Yrotation
                  JOINT head_JNT
                  {
                    OFFSET -13.796 -11.6756 0
                    CHANNELS 6 Xposition Yposition Zposition Zrotation Xrotation Yrotation
                    JOINT l_hornRoot_JNT
                    {
                      OFFSET -15.825 14.8229 15.3879
                      CHANNELS 6 Xposition Yposition Zposition Zrotation Xrotation Yrotation
                      JOINT l_hornMid_JNT
                      {
                        OFFSET 6.55118 0 0
                        CHANNELS 6 Xposition Yposition Zposition Zrotation Xrotation Yrotation
                        JOINT l_hornEnd_JNT
                        {
                          OFFSET 6.73503 0 0
                          CHANNELS 6 Xposition Yposition Zposition Zrotation Xrotation Yrotation
                          End Site
                          {
                            OFFSET 0 0 0
                          }
                        }
                      }
                    }
                    JOINT headJend_JNT
                    {
                      OFFSET 1.34858 -27.5886 0
                      CHANNELS 6 Xposition Yposition Zposition Zrotation Xrotation Yrotation
                      End Site
                      {
                        OFFSET 0 0 0
                      }
                    }
                    JOINT r_hornRoot_JNT
                    {
                      OFFSET -15.825 14.8229 -15.3879
                      CHANNELS 6 Xposition Yposition Zposition Zrotation Xrotation Yrotation
                      JOINT r_hornMid_JNT
                      {
                        OFFSET -2.40814 5.46468 -2.69372
                        CHANNELS 6 Xposition Yposition Zposition Zrotation Xrotation Yrotation
                        JOINT r_hornEnd_JNT
                        {
                          OFFSET -2.40922 6.0083 -1.85921
                          CHANNELS 6 Xposition Yposition Zposition Zrotation Xrotation Yrotation
                          End Site
                          {
                            OFFSET 0 0 0
                          }
                        }
                      }
                    }
                    JOINT m_upLip_JNT
                    {
                      OFFSET 4.72477 -9.87974 0
                      CHANNELS 6 Xposition Yposition Zposition Zrotation Xrotation Yrotation
                      JOINT l_lipUpRoot_JNT
                      {
                        OFFSET 2.68891 -0.690234 4.02874
                        CHANNELS 6 Xposition Yposition Zposition Zrotation Xrotation Yrotation
                        JOINT l_lipUpEnd_JNT
                        {
                          OFFSET 0 0 -14.9226
                          CHANNELS 6 Xposition Yposition Zposition Zrotation Xrotation Yrotation
                          End Site
                          {
                            OFFSET 0 0 0
                          }
                        }
                      }
                      JOINT m_upLipRoot_JNT
                      {
                        OFFSET 0 0 3.94939
                        CHANNELS 6 Xposition Yposition Zposition Zrotation Xrotation Yrotation
                        JOINT m_upLipEnd_JNT
                        {
                          OFFSET 0 0 15.0019
                          CHANNELS 6 Xposition Yposition Zposition Zrotation Xrotation Yrotation
                          End Site
                          {
                            OFFSET 0 0 0
                          }
                        }
                      }
                      JOINT r_lipUpRoot_JNT
                      {
                        OFFSET -2.689 -0.690236 4.02875
                        CHANNELS 6 Xposition Yposition Zposition Zrotation Xrotation Yrotation
                        JOINT r_lipUpEnd_JNT
                        {
                          OFFSET 9.35075e-005 -0.000392738 14.9226
                          CHANNELS 6 Xposition Yposition Zposition Zrotation Xrotation Yrotation
                          End Site
                          {
                            OFFSET 0 0 0
                          }
                        }
                      }
                    }
                    JOINT m_DnLip_JNT
                    {
                      OFFSET 6.0207 -9.81639 0
                      CHANNELS 6 Xposition Yposition Zposition Zrotation Xrotation Yrotation
                      JOINT l_lipDn_JNT
                      {
                        OFFSET 2.71301 -0.162748 3.99146
                        CHANNELS 6 Xposition Yposition Zposition Zrotation Xrotation Yrotation
                        JOINT l_lipEnd_JNT
                        {
                          OFFSET 0 0 -14.9599
                          CHANNELS 6 Xposition Yposition Zposition Zrotation Xrotation Yrotation
                          End Site
                          {
                            OFFSET 0 0 0
                          }
                        }
                      }
                      JOINT m_dnLip_JNT
                      {
                        OFFSET 0 -0.0431035 3.99141
                        CHANNELS 6 Xposition Yposition Zposition Zrotation Xrotation Yrotation
                        JOINT m_dnLipEnd_JNT
                        {
                          OFFSET 0 0 14.9599
                          CHANNELS 6 Xposition Yposition Zposition Zrotation Xrotation Yrotation
                          End Site
                          {
                            OFFSET 0 0 0
                          }
                        }
                      }
                      JOINT r_lipDn_JNT
                      {
                        OFFSET -2.71301 -0.162761 3.99141
                        CHANNELS 6 Xposition Yposition Zposition Zrotation Xrotation Yrotation
                        JOINT r_lipDnEnd_JNT
                        {
                          OFFSET 0 0 14.9599
                          CHANNELS 6 Xposition Yposition Zposition Zrotation Xrotation Yrotation
                          End Site
                          {
                            OFFSET 0 0 0
                          }
                        }
                      }
                    }
                    JOINT l_lid_JNT
                    {
                      OFFSET -7.85698 -6.72885 9.63956
                      CHANNELS 6 Xposition Yposition Zposition Zrotation Xrotation Yrotation
                      End Site
                      {
                        OFFSET 0 0 0
                      }
                    }
                    JOINT r_lid_JNT
                    {
                      OFFSET -7.85684 -6.72882 -9.63956
                      CHANNELS 6 Xposition Yposition Zposition Zrotation Xrotation Yrotation
                      End Site
                      {
                        OFFSET 0 0 0
                      }
                    }
                  }
                }
              }
            }
            JOINT l_FwClavicleRoot_JNT
            {
              OFFSET -0.15532 -4.55898 6.72563
              CHANNELS 6 Xposition Yposition Zposition Zrotation Xrotation Yrotation
              JOINT l_FwLegBlendRoot_JNT
              {
                OFFSET 21.051 0 0
                CHANNELS 6 Xposition Yposition Zposition Zrotation Xrotation Yrotation
                JOINT l_FwLegBlendMiddle_JNT
                {
                  OFFSET 33.1145 0 0
                  CHANNELS 6 Xposition Yposition Zposition Zrotation Xrotation Yrotation
                  JOINT l_FwLegBlendTip_JNT
                  {
                    OFFSET 29.9221 0 0
                    CHANNELS 6 Xposition Yposition Zposition Zrotation Xrotation Yrotation
                    JOINT l_FwLegBlendEnd_JNT
                    {
                      OFFSET 9.62649 0 0
                      CHANNELS 6 Xposition Yposition Zposition Zrotation Xrotation Yrotation
                      End Site
                      {
                        OFFSET 0 0 0
                      }
                    }
                  }
                }
              }
            }
            JOINT r_FwClavicleRoot_JNT
            {
              OFFSET -0.15532 -4.55898 -6.72563
              CHANNELS 6 Xposition Yposition Zposition Zrotation Xrotation Yrotation
              JOINT r_FwLegBlendRoot_JNT
              {
                OFFSET 1.1653 -12.7157 -16.7361
                CHANNELS 6 Xposition Yposition Zposition Zrotation Xrotation Yrotation
                JOINT r_FwLegBlendMiddle_JNT
                {
                  OFFSET 16.2308 -5.97551 28.2387
                  CHANNELS 6 Xposition Yposition Zposition Zrotation Xrotation Yrotation
                  JOINT r_FwLegBlendTip_JNT
                  {
                    OFFSET 26.7017 -9.19239 -9.89204
                    CHANNELS 6 Xposition Yposition Zposition Zrotation Xrotation Yrotation
                    JOINT r_FwLegBlendEnd_JNT
                    {
                      OFFSET 4.44874 -7.74942 3.58114
                      CHANNELS 6 Xposition Yposition Zposition Zrotation Xrotation Yrotation
                      End Site
                      {
                        OFFSET 0 0 0
                      }
                    }
                  }
                }
              }
            }
          }
        }
      }
    }
    JOINT r_legIKClavicle_Root_JNT
    {
      OFFSET -0.323145 -1.55994 -9.59625
      CHANNELS 6 Xposition Yposition Zposition Zrotation Xrotation Yrotation
      JOINT r_legBlendRoot_JNT
      {
        OFFSET 13.2848 -5.74129 -7.13912
        CHANNELS 6 Xposition Yposition Zposition Zrotation Xrotation Yrotation
        JOINT r_legBlendMiddle_JNT
        {
          OFFSET 14.815 16.9375 15.0957
          CHANNELS 6 Xposition Yposition Zposition Zrotation Xrotation Yrotation
          JOINT r_legBlendEnd_JNT
          {
            OFFSET 23.6904 -6.58016 -3.54465
            CHANNELS 6 Xposition Yposition Zposition Zrotation Xrotation Yrotation
            JOINT r_legBlendTip_JNT
            {
              OFFSET 1.47758 -6.16068 -2.41079
              CHANNELS 6 Xposition Yposition Zposition Zrotation Xrotation Yrotation
              End Site
              {
                OFFSET 0 0 0
              }
            }
          }
        }
      }
    }
    JOINT tailRoot_JNT
    {
      OFFSET 2.82533 14.5514 0
      CHANNELS 6 Xposition Yposition Zposition Zrotation Xrotation Yrotation
      JOINT tailMid_JNT
      {
        OFFSET 7.87756 0 0
        CHANNELS 6 Xposition Yposition Zposition Zrotation Xrotation Yrotation
        JOINT tailEnd_JNT
        {
          OFFSET 6.52588 0 0
          CHANNELS 6 Xposition Yposition Zposition Zrotation Xrotation Yrotation
          End Site
          {
            OFFSET 0 0 0
          }
        }
      }
    }
    JOINT l_shoulderBkRoot_JNT
    {
      OFFSET -9.30511 7.998 11.2048
      CHANNELS 6 Xposition Yposition Zposition Zrotation Xrotation Yrotation
      JOINT l_shoulderBkMid_JNT
      {
        OFFSET 0 0 0
        CHANNELS 6 Xposition Yposition Zposition Zrotation Xrotation Yrotation
        End Site
        {
          OFFSET 0 0 0
        }
      }
    }
    JOINT r_shoulderBkRoot_JNT
    {
      OFFSET -9.30514 7.99801 -11.2048
      CHANNELS 6 Xposition Yposition Zposition Zrotation Xrotation Yrotation
      JOINT r_shoulderBkMid_JNT
      {
        OFFSET 0 0 0
        CHANNELS 6 Xposition Yposition Zposition Zrotation Xrotation Yrotation
        End Site
        {
          OFFSET 0 0 0
        }
      }
    }
  }
}
MOTION
Frames:	3
Frame Time:	0.0416667
0 0 0 0 0 -0 -1.84424 31.0205 -42.9811 50.8891 6.04799 90.8982 -0.323145 -1.55994 9.59625 -26.4062 61.2999 -67.9538 16.1374 -2.59473e-008 1.78822e-006 -61.8148 -10.313 86.0552 27.0969 1.42109e-014 -4.26326e-014 1.46385e-015 3.97569e-015 -68.8672 24.8414 0 3.55271e-014 -6.21797 20.0826 -65.5595 6.77858 -7.10543e-015 -1.42109e-014 2.64144e-016 1.44847e-015 9.54166e-015 -19.3363 0.569886 0.271219 -0.675912 40.3136 -2.13452 -18.2284 2.36 -0.579212 -19.327 12.2579 -4.87691 -16.7168 5.3518 -0.523655 -1.1277 -1.87934 0.125883 -18.8961 0.0601165 0.850116 25.7231 2.9591 4.21672 -19.2001 7.32207 0.208625 -7.84363 -12.5913 21.7158 -16.3943 7.24542 3.55271e-014 -24.5365 -12.606 -3.75665 -19.3877 2.40349 -4.9738e-014 -3.29058 -4.21145 7.54253 -13.796 -11.6756 4.61853e-014 0.178701 1.89672 -6.14646 -15.825 14.8229 15.3879 108.987 -0.670764 -24.3996 6.55118 1.7053e-013 -2.4869e-014 -0.359826 1.95339 -5.45194 6.73503 1.42109e-014 -4.61853e-014 0 0 -0 1.34858 -27.5886 -2.13163e-014 92.7985 2.22639e-014 -1.51076e-014 -15.825 14.8229 -15.3879 -9.00359 18.4877 3.91728 -2.40814 5.46468 -2.69372 -11.3807 9.66048 4.44666 -2.40922 6.0083 -1.85921 3.18055e-015 -1.59028e-015 -1.59028e-015 4.72477 -9.87974 7.10543e-015 92.7985 1.62112e-014 -90 2.68891 -0.690234 4.02874 180 7.01671e-015 180 0 0 -14.9226 6.36111e-015 -1.59028e-015 3.18055e-015 -1.42109e-014 0 3.94939 -6.36111e-015 -1.59028e-015 1.59028e-015 7.10543e-015 0 15.0019 8.82781e-032 -1.59028e-015 3.18055e-015 -2.689 -0.690236 4.02875 -6.36111e-015 -1.59028e-015 1.59028e-015 9.35075e-005 -0.000392738 14.9226 8.82781e-032 -1.59028e-015 3.18055e-015 6.0207 -9.81639 -7.10543e-015 92.7985 1.62112e-014 -90 2.71301 -0.162748 3.99146 180 7.01671e-015 180 7.10543e-015 0 -14.9599 6.36111e-015 -1.59028e-015 3.18055e-015 -7.10543e-015 -0.0431035 3.99141 -6.36111e-015 -1.59028e-015 1.59028e-015 -1.42109e-014 -1.42109e-014 14.9599 8.82781e-032 -1.59028e-015 3.18055e-015 -2.71301 -0.162761 3.99141 -6.36111e-015 -1.59028e-015 1.59028e-015 0 0 14.9599 8.82781e-032 -1.59028e-015 3.18055e-015 -7.85698 -6.72885 9.63956 34.106 19.9417 85.9622 -7.85684 -6.72882 -9.63956 -145.894 19.9417 85.9622 -3.41093 -3.28896 7.23007 5.27867 18.1582 -123.702 21.051 3.70617e-007 -2.50923e-007 34.9222 -44.2431 103.171 33.1145 8.3753e-007 -2.8019e-007 62.5804 7.01671e-015 -180 29.9221 1.59872e-014 -4.26326e-014 3.96905 5.70338 24.9846 9.62649 2.04281e-014 7.10543e-015 29.859 -1.7467e-015 90 -3.22516 -2.24535 -10.494 -77.4566 15.2969 -2.05678 1.1653 -12.7157 -16.7361 178.874 -62.046 -105.06 16.2308 -5.97551 28.2387 145.3 12.421 140.225 26.7017 -9.19239 -9.89204 56.1828 55.4233 -26.0603 4.44874 -7.74942 3.58114 29.859 -1.7467e-015 90 -0.319743 -1.53163 -8.93392 -63.2096 -11.116 1.9189 13.2848 -5.74129 -7.13912 4.82039 -5.46559 22.2866 14.815 16.9375 15.0957 -40.8906 33.7042 -41.1619 23.6904 -6.58016 -3.54465 16.2374 3.46116 -45.4999 1.47758 -6.16068 -2.41079 -2.38542e-015 7.95139e-016 1.38652e-014 2.82533 14.5514 -7.10543e-015 4.99157 -1.22253e-014 27.0974 7.87756 -1.42109e-014 1.42109e-014 19.1217 4.77083e-015 21.3578 6.52588 2.84217e-014 -7.10543e-015 14.4162 4.35594 21.2501 -9.30511 7.998 11.2048 -6.8505 -4.18474e-016 -90 0 0 0 5.8129e-015 1.98785e-016 -9.93923e-017 -9.30514 7.99801 -11.2048 173.149 4.18474e-016 -90 0 0 0 7.442e-015 -9.93923e-017 1.98785e-016 
0 0 0 0 0 -0 -1.92974 29.6447 -42.9771 54.1615 6.13538 90.9195 -0.323145 -1.55994 9.59625 -26.4062 61.2999 -67.9538 16.1374 5.61992e-009 1.79426e-006 -46.8335 -14.1238 92.6152 27.0969 -7.10543e-015 -4.26326e-014 2.76027e-014 2.48481e-015 -76.6084 24.8414 0 7.10543e-015 -10.7453 26.1704 -63.9154 6.77858 -7.10543e-015 -1.42109e-014 5.97081e-016 -4.77385e-015 -6.36111e-015 -19.3332 0.615705 0.399282 -0.523301 42.6534 -2.2979 -18.1934 2.02245 -0.49919 -15.9508 13.1786 -3.88823 -16.2983 5.2831 -0.342888 -1.08848 -1.51197 0.101988 -18.8157 0.0296844 0.551746 27.6495 2.28236 3.08365 -19.1963 7.27828 0.217446 -6.74126 -12.5498 23.3857 -16.3943 7.24542 2.4869e-014 -23.2892 -13.0724 -3.2846 -19.3877 2.40349 -6.39488e-014 -1.40012 -5.99768 6.42915 -13.796 -11.6756 5.68434e-014 0.182485 1.57262 -7.38119 -15.825 14.8229 15.3879 112.717 -2.35881 -24.301 6.55118 1.56319e-013 -2.13163e-014 -0.374909 2.87637 -7.7429 6.73503 2.84217e-014 -4.9738e-014 -4.96962e-017 -3.18055e-015 -2.48481e-017 1.34858 -27.5886 -2.13163e-014 92.7985 1.59028e-014 -2.34566e-014 -15.825 14.8229 -15.3879 -4.93786 13.8536 3.9268 -2.40814 5.46468 -2.69372 -11.1534 14.9348 7.36999 -2.40922 6.0083 -1.85921 9.54166e-015 -1.59028e-015 -0 4.72477 -9.87974 1.42109e-014 92.7985 3.50417e-015 -90 2.68891 -0.690234 4.02874 -180 7.01671e-015 -180 0 0 -14.9226 -0 0 3.97569e-015 -7.10543e-015 2.84217e-014 3.94939 3.18055e-015 3.18055e-015 -3.97569e-016 0 0 15.0019 -3.18055e-015 -3.18055e-015 -7.15625e-015 -2.689 -0.690236 4.02875 3.18055e-015 3.18055e-015 -3.97569e-016 9.35075e-005 -0.000392738 14.9226 -3.18055e-015 -3.18055e-015 -7.15625e-015 6.0207 -9.81639 0 92.7985 3.50417e-015 -90 2.71301 -0.162748 3.99146 -180 7.01671e-015 -180 7.10543e-015 0 -14.9599 -0 0 3.97569e-015 0 -0.0431035 3.99141 3.18055e-015 3.18055e-015 -3.97569e-016 0 0 14.9599 -3.18055e-015 -3.18055e-015 -7.15625e-015 -2.71301 -0.162761 3.99141 3.18055e-015 3.18055e-015 -3.97569e-016 -7.10543e-015 0 14.9599 -3.18055e-015 -3.18055e-015 -7.15625e-015 -7.85698 -6.72885 9.63956 34.106 19.9417 85.9622 -7.85684 -6.72882 -9.63956 -145.894 19.9417 85.9622 -3.57399 -3.04287 6.93634 0.640198 18.5211 -124.496 21.051 4.46826e-007 -1.5193e-007 58.0258 -62.117 113.464 33.1145 8.3753e-007 -2.8019e-007 59.7414 7.01671e-015 -180 29.9221 3.55271e-015 -2.13163e-014 -4.5973 19.7785 19.024 9.62649 2.4869e-014 3.55271e-015 29.859 -1.7467e-015 90 -3.32089 -2.0259 -10.793 -82.9369 16.0524 -0.59338 1.16529 -12.7157 -16.7361 -169.03 -61.2519 -84.9489 16.2308 -5.97551 28.2387 144.465 11.3649 144.278 26.7017 -9.19239 -9.89204 71.1937 55.8276 -42.8828 4.44874 -7.74942 3.58114 29.859 -1.7467e-015 90 -0.317125 -1.50983 -8.71576 -63.4798 -11.991 0.569907 13.2848 -5.74129 -7.13912 6.64824 -2.70761 22.3725 14.815 16.9375 15.0957 -41.8275 34.1973 -40.6387 23.6904 -6.58016 -3.54465 16.7651 1.07188 -45.1168 1.47758 -6.16068 -2.41079 -1.59028e-015 7.95139e-016 1.15295e-014 2.82533 14.5514 7.10543e-015 4.99157 -1.68967e-015 27.9063 7.87756 -3.55271e-015 7.10543e-015 19.1217 4.77083e-015 21.7766 6.52588 2.84217e-014 -2.84217e-014 8.94696 0.647211 25.7531 -9.30511 7.998 11.2048 -6.8505 -4.18474e-016 -90 0 0 0 -3.33741e-015 -9.93923e-017 -0 -9.30514 7.99801 -11.2048 173.149 4.18474e-016 -90 0 0 0 -9.7684e-016 9.93923e-017 1.98785e-016 
0 0 0 0 0 -0 -2.00039 28.8074 -42.9735 59.4857 6.256 90.9142 -0.323145 -1.55994 9.59625 -26.4062 61.2999 -67.9538 16.1374 3.38417e-008 1.79982e-006 -26.7432 -17.6767 92.6552 27.0969 7.10543e-015 -5.4623e-014 -6.4888e-014 6.92888e-016 -95.6671 24.8414 -1.42109e-014 0 5.07681 29.1715 -57.7696 6.77858 -7.10543e-015 -1.42109e-014 -1.36917e-015 -3.503e-015 3.18055e-015 -19.3366 0.647249 0.525323 -0.356464 44.789 -2.45688 -18.1577 1.76278 -0.430512 -13.6882 14.5646 -1.41486 -16.0482 5.30222 -0.185163 -1.17516 -0.749124 0.0929457 -18.7587 -0.0879452 0.289043 31.7604 0.795332 1.01723 -19.1909 7.24674 0.22442 -5.30238 -12.2599 26.1146 -16.3943 7.24542 3.19744e-014 -20.4086 -14.1367 -2.19957 -19.3877 2.40349 -6.03961e-014 2.65833 -10.0979 3.87508 -13.796 -11.6756 4.9738e-014 0.172827 1.25754 -8.5853 -15.825 14.8229 15.3879 112.717 -2.35881 -24.301 6.55118 1.7053e-013 0 -0.388378 -2.61234 2.01479 6.73503 1.42109e-014 -4.26326e-014 3.18055e-015 -3.18055e-015 -0 1.34858 -27.5886 -1.06581e-014 92.7985 1.27222e-014 -1.86858e-014 -15.825 14.8229 -15.3879 -0.58399 7.87943 3.35043 -2.40814 5.46468 -2.69372 -9.92585 20.4076 11.5495 -2.40922 6.0083 -1.85921 -1.59028e-015 -2.38542e-015 -3.18055e-015 4.72477 -9.87974 -3.55271e-015 92.7985 3.50417e-015 -90 2.68891 -0.690234 4.02874 -180 7.01671e-015 -180 0 -1.42109e-014 -14.9226 -1.59028e-015 3.18055e-015 1.27222e-014 -3.55271e-015 4.26326e-014 3.94939 1.59028e-015 3.18055e-015 -7.55382e-015 0 0 15.0019 -1.59028e-015 1.59028e-015 -1.19271e-015 -2.689 -0.690236 4.02875 1.59028e-015 3.18055e-015 -7.55382e-015 9.35075e-005 -0.000392738 14.9226 -1.59028e-015 1.59028e-015 -1.19271e-015 6.0207 -9.81639 -3.55271e-015 92.7985 3.50417e-015 -90 2.71301 -0.162748 3.99146 -180 7.01671e-015 -180 -3.55271e-015 0 -14.9599 -1.59028e-015 3.18055e-015 1.27222e-014 3.55271e-015 -0.0431035 3.99141 1.59028e-015 3.18055e-015 -7.55382e-015 3.55271e-015 0 14.9599 -1.59028e-015 1.59028e-015 -1.19271e-015 -2.71301 -0.162761 3.99141 1.59028e-015 3.18055e-015 -7.55382e-015 -3.55271e-015 0 14.9599 -1.59028e-015 1.59028e-015 -1.19271e-015 -7.85698 -6.72885 9.63956 34.106 19.9417 85.9622 -7.85684 -6.72882 -9.63956 -145.894 19.9417 85.9622 -3.67785 -2.84819 6.66856 -4.54261 19.5445 -126.319 21.051 4.94652e-007 -8.93989e-008 63.9334 -65.064 113.598 33.1145 8.3753e-007 -2.8019e-007 51.6104 7.01671e-015 -180 29.9221 3.55271e-015 -2.84217e-014 -17.8629 16.8162 20.8613 9.62649 2.4869e-014 3.55271e-015 29.859 -1.7467e-015 90 -3.35722 -1.82659 -11.177 -89.7643 17.2567 1.64043 1.16529 -12.7157 -16.7361 -164.87 -60.0963 -74.7459 16.2308 -5.97551 28.2387 144.022 10.7337 146.59 26.7017 -9.19239 -9.89204 85.1685 51.406 -62.9528 4.44874 -7.74942 3.58114 29.859 -8.08068e-015 90 -0.312921 -1.47484 -8.45011 -64.1801 -13.9658 -2.54738 13.2848 -5.74129 -7.13912 10.4741 1.71311 28.3101 14.815 16.9375 15.0957 -45.0418 35.7928 -38.7948 23.6904 -6.58016 -3.54465 17.3256 1.0933 -45.8543 1.47758 -6.16068 -2.41079 -3.97569e-016 -2.38542e-015 1.83876e-015 2.82533 14.5514 -7.10543e-015 4.99157 3.05631e-015 30.0529 7.87756 -1.77636e-014 1.42109e-014 19.1217 -3.18055e-015 23.4517 6.52588 7.10543e-015 -2.13163e-014 4.15909 -2.71127 30.2416 -9.30511 7.998 11.2048 -6.8505 -4.18474e-016 -90 0 0 0 -4.78792e-015 1.98785e-016 -0 -9.30514 7.99801 -11.2048 173.149 4.18474e-016 -90 0 0 0 3.02836e-016 0 1.98785e-016 
